<svg width="38" height="26" viewBox="0 0 38 26" fill="none" xmlns="http://www.w3.org/2000/svg">
<path d="M15.4287 17.3135H18.6162C18.4502 18.8408 18.013 20.2077 17.3047 21.4141C16.5964 22.6204 15.5947 23.5778 14.2998 24.2861C13.0049 24.9834 11.389 25.332 9.45215 25.332C8.03548 25.332 6.74609 25.0664 5.58398 24.5352C4.43294 24.0039 3.44238 23.2513 2.6123 22.2773C1.78223 21.2923 1.1403 20.1136 0.686523 18.7412C0.243815 17.3577 0.0224609 15.8193 0.0224609 14.126V11.7188C0.0224609 10.0254 0.243815 8.49251 0.686523 7.12012C1.1403 5.73665 1.78776 4.55241 2.62891 3.56738C3.48112 2.58236 4.50488 1.82422 5.7002 1.29297C6.89551 0.761719 8.24023 0.496094 9.73438 0.496094C11.5605 0.496094 13.1045 0.839193 14.3662 1.52539C15.6279 2.21159 16.6074 3.16341 17.3047 4.38086C18.013 5.58724 18.4502 6.9873 18.6162 8.58105H15.4287C15.2738 7.45215 14.986 6.48372 14.5654 5.67578C14.1449 4.85677 13.5472 4.22591 12.7725 3.7832C11.9977 3.34049 10.985 3.11914 9.73438 3.11914C8.66081 3.11914 7.71452 3.32389 6.89551 3.7334C6.08757 4.1429 5.4069 4.72396 4.85352 5.47656C4.3112 6.22917 3.90169 7.13118 3.625 8.18262C3.34831 9.23405 3.20996 10.4017 3.20996 11.6855V14.126C3.20996 15.3102 3.33171 16.4225 3.5752 17.4629C3.82975 18.5033 4.21159 19.4163 4.7207 20.2021C5.22982 20.988 5.87728 21.6077 6.66309 22.0615C7.44889 22.5042 8.37858 22.7256 9.45215 22.7256C10.8135 22.7256 11.8981 22.5098 12.7061 22.0781C13.514 21.6465 14.1227 21.0267 14.5322 20.2188C14.9528 19.4108 15.2516 18.4424 15.4287 17.3135ZM26.1865 0.828125V25H22.9824V0.828125H26.1865ZM36.3135 11.7021V14.3252H25.4893V11.7021H36.3135ZM37.957 0.828125V3.45117H25.4893V0.828125H37.957Z" fill="#E8833A"/>
</svg>
